HIERARCHY
ROOT hip
{
	OFFSET 0.000000 0.000000 0.000000 
	CHANNELS 6 Xposition Yposition Zposition Xrotation Zrotation Yrotation
	JOINT abdomen
	{
		OFFSET 0.000000 3.402643 0.000000 
		CHANNELS 3 Xrotation Zrotation Yrotation
		JOINT chest
		{
			OFFSET 0.000000 8.438565 -0.680529 
			CHANNELS 3 Xrotation Zrotation Yrotation
			JOINT neck
			{
				OFFSET 0.000000 10.207942 -0.272212 
				CHANNELS 3 Xrotation Zrotation Yrotation
				JOINT head
				{
					OFFSET 0.000000 3.130431 0.000000 
					CHANNELS 3 Xrotation Zrotation Yrotation
					End Site
					{
						OFFSET 0.000000 3.130435 0.000000 
					}
				}
			}
			JOINT lCollar
			{
				OFFSET 3.470700 6.669187 -0.816635 
				CHANNELS 3 Yrotation Zrotation Xrotation
				JOINT lShldr
				{
					OFFSET 3.198488 0.000000 0.000000 
					CHANNELS 3 Zrotation Yrotation Xrotation
					JOINT lForeArm
					{
						OFFSET 10.139888 0.000000 0.000000 
						CHANNELS 3 Yrotation Zrotation Xrotation
						JOINT lHand
						{
							OFFSET 8.370511 0.000000 0.000000 
							CHANNELS 3 Zrotation Yrotation Xrotation
							End Site
							{
								OFFSET 4.083176 0.000000 0.000000 
							}
						}
					}
				}
			}
			JOINT rCollar
			{
				OFFSET -3.470700 6.669187 -0.816635 
				CHANNELS 3 Yrotation Zrotation Xrotation
				JOINT rShldr
				{
					OFFSET -3.198488 0.000000 0.000000 
					CHANNELS 3 Zrotation Yrotation Xrotation
					JOINT rForeArm
					{
						OFFSET -10.139888 0.000000 0.000000 
						CHANNELS 3 Yrotation Zrotation Xrotation
						JOINT rHand
						{
							OFFSET -8.370511 0.000000 0.000000 
							CHANNELS 3 Zrotation Yrotation Xrotation
							End Site
							{
								OFFSET -4.083176 0.000000 0.000000 
							}
						}
					}
				}
			}
		}
	}
	JOINT lThigh
	{
		OFFSET 5.308129 -1.633274 1.361059 
		CHANNELS 3 Xrotation Zrotation Yrotation
		JOINT lShin
		{
			OFFSET -2.041588 -20.007561 0.000000 
			CHANNELS 3 Xrotation Zrotation Yrotation
			JOINT lFoot
			{
				OFFSET 0.000000 -19.190928 -1.224953 
				CHANNELS 3 Xrotation Yrotation Zrotation
				End Site
				{
					OFFSET 0.000000 -2.449906 4.627600 
				}
			}
		}
	}
	JOINT rThigh
	{
		OFFSET -5.308129 -1.633274 1.361059 
		CHANNELS 3 Xrotation Zrotation Yrotation
		JOINT rShin
		{
			OFFSET 2.041588 -20.007561 0.000000 
			CHANNELS 3 Xrotation Zrotation Yrotation
			JOINT rFoot
			{
				OFFSET 0.000000 -19.190928 -1.224953 
				CHANNELS 3 Xrotation Yrotation Zrotation
				End Site
				{
					OFFSET 0.000000 -2.449906 4.627600 
				}
			}
		}
	}
}
MOTION
Frames: 6
Frame Time: 0.033333
-112.604568 51.890038 -111.672722 2.142307 -3.337515 44.464710 21.815895 0.149389 -0.392450 -20.839844 0.000000 0.000000 -5.156401 8.005165 0.736481 -2.520832 -1.255077 0.218355 -4.754609 -0.109184 -0.002653 -78.814507 -0.494810 55.537121 -3.057146 0.126242 -3.078966 0.842416 -9.392939 0.106802 4.754609 0.109184 -0.002672 72.510216 -33.441135 17.700161 100.182388 0.035959 2.842428 -8.638185 8.911354 -0.451676 2.096881 6.664038 6.799287 7.750401 -3.827493 2.771935 -19.416973 1.056168 -3.276486 -23.499805 -8.884410 0.219603 9.908562 2.642892 -11.486923 4.503052 -0.212926 6.144099 
-112.042603 51.696121 -111.168633 2.839536 -4.164820 43.475086 21.747686 0.168301 -0.332342 -20.839844 0.000000 0.000000 -6.243838 8.681871 1.397590 -2.520832 -1.255077 0.218355 -4.754609 -0.109184 -0.002653 -78.213860 -1.118887 56.608406 -3.486212 0.129786 -3.077945 0.123437 -9.303707 0.143782 4.754609 0.109184 -0.002672 71.002846 -31.600183 19.186813 103.663773 0.027492 2.877307 -9.541510 8.169661 -0.478360 1.980782 6.588136 5.541915 7.412005 -3.735512 4.887810 -18.264822 1.032231 -3.621887 -22.302158 -9.256848 1.412640 -2.883504 3.014256 -14.128919 6.349425 -0.039448 4.242743 
-111.397827 51.407753 -110.489838 3.479092 -4.815370 42.656200 21.738102 0.189340 -0.250377 -20.839844 0.000000 0.000000 -7.044692 9.155102 1.650696 -2.520832 -1.255077 0.218355 -4.754609 -0.109184 -0.002653 -77.697792 -1.844164 57.488602 -3.992929 0.114164 -3.789944 -0.132885 -9.488783 0.160010 4.754609 0.109184 -0.002672 69.044945 -29.600691 21.049156 106.835487 0.099851 0.513482 -10.685681 6.810768 -0.456841 1.796490 6.552557 4.722760 8.077077 -3.648726 6.453469 -17.831154 1.045491 -4.057288 -27.418983 -9.462072 1.659856 -1.229159 3.250979 -13.117117 1.108426 -0.247543 4.862085 
-110.633270 51.078270 -109.624268 3.940848 -5.007723 42.496872 21.777277 0.261867 -0.221337 -20.839844 0.000000 0.000000 -7.761817 9.402330 1.545474 -2.520832 -1.255077 0.218355 -4.754609 -0.109184 -0.002653 -77.216187 -2.896503 57.543373 -4.538103 0.108633 -4.189880 -0.823256 -9.536175 0.201861 4.754609 0.109184 -0.002672 66.586128 -28.278313 22.973093 109.715439 0.221260 -3.363732 -11.764361 6.166324 -0.469228 2.507240 6.381374 4.235950 8.258848 -3.593606 7.536403 -17.513624 0.943518 -4.612429 -30.754696 -9.968771 1.201718 -0.478302 3.289921 -12.393074 -3.228516 -0.526396 5.705686 
-109.781364 50.736603 -108.573837 4.500977 -5.198850 42.579514 21.777388 0.316279 -0.199545 -20.839844 0.000000 0.000000 -8.730268 9.343376 1.422289 -2.520832 -1.255077 0.218355 -4.754609 -0.109184 -0.002653 -76.754555 -4.265432 57.110256 -5.111781 0.104398 -4.629491 -1.490266 -9.183786 0.218243 4.754609 0.109184 -0.002672 64.792374 -27.837687 23.709007 112.290344 0.301254 -6.251504 -11.765151 6.127629 -0.480339 3.199866 6.157628 3.741911 8.942106 -3.535218 8.252434 -18.284986 0.827026 -4.307173 -33.009178 -10.466357 1.285906 -0.122835 3.233915 -13.412787 -6.076125 -0.734579 6.209630 
-108.857384 50.364975 -107.299576 5.211466 -5.708882 42.175148 21.728704 0.289329 -0.073849 -20.839844 0.000000 0.000000 -10.065001 9.352826 1.814982 -2.520832 -1.255077 0.218355 -4.754609 -0.109184 -0.002653 -76.352226 -5.604435 56.690586 -5.663013 0.081530 -5.686243 -1.036851 -8.979546 0.191671 4.754609 0.109184 -0.002672 63.753258 -27.822327 23.628246 114.361824 0.328774 -7.136074 -11.100740 6.685601 -0.509869 4.198344 6.239855 4.790144 9.381864 -3.574327 7.643564 -20.141108 0.931165 -3.856326 -34.684029 -10.194268 2.627914 0.383587 3.147555 -15.144560 -6.827855 -0.753478 6.062460 
